<?xml version="1.0" encoding="UTF-8"?>
<svg width="195px" height="171px" viewBox="0 0 195 171" version="1.1" xmlns="http://www.w3.org/2000/svg" xmlns:xlink="http://www.w3.org/1999/xlink">
    <!-- Generator: Sketch 53.2 (72643) - https://sketchapp.com -->
    <title>Logo-Scoot</title>
    <desc>Created with Sketch.</desc>
    <g id="Page-1" stroke="none" stroke-width="1" fill="none" fill-rule="evenodd">
        <g id="Combined-Shape-2" fill="#FFE900" fill-rule="nonzero">
            <path d="M165.72917,71.0923184 C162.507554,68.1663658 158.176552,66.3642857 152.394958,66.3642857 C139.285714,66.3642857 133.140756,76.5428571 133.140756,85.5 C133.140756,94.4571429 139.285714,104.635714 152.394958,104.635714 C165.504202,104.635714 171.64916,94.4571429 171.64916,85.5 C171.64916,83.6434765 171.393621,81.8716083 170.921385,80.1843954 L167.552521,81.0214286 L165.094538,71.25 L165.72917,71.0923184 Z M170.626357,69.8755557 L173.287815,69.2142857 L171.64916,62.7 L181.481092,56.1857143 L183.939076,66.7714286 L192.951681,64.7357143 L195,74.5071429 L186.397059,76.5428571 L191.313025,96.0857143 L194.590336,95.2714286 L195,102.6 L182.30042,105.45 L175.745798,78.9857143 L171.880328,79.946135 C171.998719,81.7822377 172.058824,83.6341286 172.058824,85.5 C172.058824,132.728571 133.55042,171 86.0294118,171 C38.5084034,171 0,132.728571 0,85.5 C0,38.2714286 38.5084034,0 86.0294118,0 C128.180766,0 163.241208,30.1110879 170.626357,69.8755557 Z M94.7274067,89.9785714 L83.9810924,89.9785714 C82.7521008,92.0142857 80.7037815,94.8642857 76.197479,94.8642857 C70.8718487,94.8642857 67.5945378,91.2 67.5945378,85.9071429 C67.5945378,83.4642857 68.4138655,81.0214286 70.052521,79.3928571 C71.6911765,77.7642857 73.7394958,76.5428571 76.197479,76.95 C79.8844538,76.1357143 82.342437,78.9857143 83.5714286,81.4285714 L94.6323529,81.4285714 C92.5840336,72.4714286 84.8004202,66.3642857 75.3781513,66.3642857 C64.7268908,66.3642857 56.5336134,74.9142857 56.5336134,85.5 C56.5336134,96.0857143 65.1365546,104.635714 75.7878151,104.635714 C85.3914902,104.635714 92.2591229,98.4203882 94.8635576,90.5430096 C96.7448814,97.8862331 102.801853,104.635714 113.476891,104.635714 C126.586134,104.635714 132.731092,94.4571429 132.731092,85.5 C132.731092,76.5428571 126.586134,66.3642857 113.476891,66.3642857 C100.367647,66.3642857 94.2226891,76.5428571 94.2226891,85.5 C94.2226891,86.9766867 94.3897045,88.4865709 94.7274067,89.9785714 Z M42.1953782,105.042857 C49.9789916,105.042857 56.9432773,100.564286 56.9432773,92.4214286 C56.9432773,85.0928571 50.3886555,83.0571429 44.2436975,81.4285714 C41.7857143,80.6142857 38.9180672,79.3928571 38.9180672,77.7642857 C38.9180672,76.5428571 39.737395,75.3214286 41.7857143,75.3214286 C44.6533613,74.9142857 45.0630252,76.95 45.0630252,77.7642857 L55.7142857,77.7642857 C54.894958,68.4 46.7016807,66.7714286 41.7857143,66.7714286 C34.4117647,66.7714286 27.8571429,71.25 27.8571429,78.9857143 C27.8571429,83.8714286 31.9537815,87.1285714 36.460084,88.35 C43.0147059,90.7928571 45.8823529,91.2 45.8823529,93.6428571 C45.8823529,95.2714286 44.2436975,96.4928571 42.1953782,96.4928571 C41.7857143,96.4928571 38.5084034,96.4928571 38.0987395,93.2357143 L27.447479,93.2357143 C28.6764706,102.6 36.8697479,105.042857 42.1953782,105.042857 Z M113.272059,76.2794118 C117.807372,76.2794118 121.930384,80.0514706 121.930384,85.5 C121.930384,90.9485294 118.219673,94.7205882 113.272059,94.7205882 C108.736746,94.7205882 104.613734,90.9485294 104.613734,85.5 C104.613734,80.0514706 108.324445,76.2794118 113.272059,76.2794118 Z M152.02837,76.2794118 C156.975985,76.2794118 160.686695,80.0514706 160.686695,85.5 C160.686695,90.9485294 156.975985,94.7205882 152.02837,94.7205882 C147.493057,94.7205882 143.370045,90.9485294 143.370045,85.5 C143.370045,80.0514706 147.080756,76.2794118 152.02837,76.2794118 Z" id="Combined-Shape"></path>
        </g>
    </g>
</svg>